<svg width="24" height="24" viewBox="0 0 24 24" fill="none" xmlns="http://www.w3.org/2000/svg">
<path fill-rule="evenodd" clip-rule="evenodd" d="M1.40332 11.9998C1.40332 6.14749 6.14755 1.40326 11.9999 1.40326C17.8522 1.40326 22.5963 6.14749 22.5963 11.9998C22.5963 17.852 17.8522 22.5963 11.9999 22.5963C6.14755 22.5963 1.40332 17.852 1.40332 11.9998ZM11.9999 2.92325C6.98702 2.92325 2.92333 6.98696 2.92333 11.9998C2.92333 17.0126 6.98702 21.0763 11.9999 21.0763C17.0126 21.0763 21.0763 17.0126 21.0763 11.9998C21.0763 6.98696 17.0126 2.92325 11.9999 2.92325ZM15.7657 8.23429C16.0781 8.54671 16.0781 9.05325 15.7657 9.36567L13.1314 12L15.7657 14.6343C16.0781 14.9467 16.0781 15.4533 15.7657 15.7657C15.4533 16.0781 14.9468 16.0781 14.6344 15.7657L12 13.1313L9.36573 15.7657C9.05331 16.0781 8.54677 16.0781 8.23435 15.7657C7.92194 15.4533 7.92194 14.9467 8.23435 14.6343L10.8687 12L8.23435 9.36567C7.92194 9.05325 7.92194 8.54671 8.23435 8.23429C8.54677 7.92188 9.05331 7.92188 9.36573 8.23429L12 10.8686L14.6344 8.23429C14.9468 7.92188 15.4533 7.92188 15.7657 8.23429Z" fill="black"/>
</svg>
