<svg width="800" height="800" viewBox="0 0 800 800" fill="none" xmlns="http://www.w3.org/2000/svg">
<path d="M713.533 169.533L413.533 36.2C409.272 34.3071 404.662 33.3291 400 33.3291C395.338 33.3291 390.727 34.3071 386.466 36.2L86.4665 169.533C80.5725 172.152 75.5648 176.424 72.0503 181.832C68.5359 187.239 66.6657 193.551 66.6665 200V223.333C66.7003 333.289 96.122 441.237 151.886 536.003C207.65 630.77 287.729 708.909 383.833 762.333C388.78 765.077 394.343 766.516 400 766.516C405.656 766.516 411.22 765.077 416.166 762.333C512.271 708.909 592.35 630.77 648.114 536.003C703.878 441.237 733.299 333.289 733.333 223.333V200C733.334 193.551 731.464 187.239 727.949 181.832C724.435 176.424 719.427 172.152 713.533 169.533ZM666.666 223.333C666.637 318.228 642.066 411.502 595.34 494.096C548.615 576.69 481.322 645.795 400 694.7C318.677 645.795 251.385 576.69 204.659 494.096C157.933 411.502 133.362 318.228 133.333 223.333V221.667L400 103.133L666.666 221.667V223.333ZM366.666 333.333H433.333V600H366.666V333.333ZM366.666 200H433.333V266.667H366.666V200Z" fill="#0C81F3"/>
</svg>
