<svg width="15" height="15" viewBox="0 0 15 15" fill="none" xmlns="http://www.w3.org/2000/svg">
<path d="M4.5 15C4.0875 15 3.7345 14.8533 3.441 14.5597C3.1475 14.2662 3.0005 13.913 3 13.5C2.9995 13.087 3.1465 12.734 3.441 12.441C3.7355 12.148 4.0885 12.001 4.5 12C4.9115 11.999 5.26475 12.146 5.55975 12.441C5.85475 12.736 6.0015 13.089 6 13.5C5.9985 13.911 5.85175 14.2642 5.55975 14.5597C5.26775 14.8553 4.9145 15.002 4.5 15ZM12 15C11.5875 15 11.2345 14.8533 10.941 14.5597C10.6475 14.2662 10.5005 13.913 10.5 13.5C10.4995 13.087 10.6465 12.734 10.941 12.441C11.2355 12.148 11.5885 12.001 12 12C12.4115 11.999 12.7648 12.146 13.0598 12.441C13.3548 12.736 13.5015 13.089 13.5 13.5C13.4985 13.911 13.3518 14.2642 13.0598 14.5597C12.7678 14.8553 12.4145 15.002 12 15ZM3.15 1.5H14.2125C14.5 1.5 14.7188 1.62825 14.8688 1.88475C15.0188 2.14125 15.025 2.4005 14.8875 2.6625L12.225 7.4625C12.0875 7.7125 11.9033 7.90625 11.6723 8.04375C11.4413 8.18125 11.188 8.25 10.9125 8.25H5.325L4.5 9.75H12.75C12.9625 9.75 13.1408 9.822 13.2848 9.966C13.4288 10.11 13.5005 10.288 13.5 10.5C13.4995 10.712 13.4275 10.8902 13.284 11.0347C13.1405 11.1792 12.9625 11.251 12.75 11.25H4.5C3.9375 11.25 3.5125 11.0033 3.225 10.5098C2.9375 10.0163 2.925 9.5255 3.1875 9.0375L4.2 7.2L1.5 1.5H0.750003C0.537503 1.5 0.359503 1.428 0.216003 1.284C0.0725026 1.14 0.000502586 0.962 2.58621e-06 0.75C-0.000497414 0.538 0.0715026 0.36 0.216003 0.216C0.360503 0.0720001 0.538503 0 0.750003 0H1.96875C2.10625 0 2.2375 0.0375001 2.3625 0.1125C2.4875 0.1875 2.58125 0.29375 2.64375 0.43125L3.15 1.5Z" fill="black"/>
</svg>
