<svg width="800" height="800" viewBox="0 0 800 800" fill="none" xmlns="http://www.w3.org/2000/svg">
<path d="M300 533.333C300 551.743 285.076 566.667 266.667 566.667C248.257 566.667 233.333 551.743 233.333 533.333C233.333 514.923 248.257 500 266.667 500C285.076 500 300 514.923 300 533.333Z" fill="#0C80F3"/>
<path d="M433.333 533.333C433.333 551.743 418.41 566.667 400 566.667C381.59 566.667 366.667 551.743 366.667 533.333C366.667 514.923 381.59 500 400 500C418.41 500 433.333 514.923 433.333 533.333Z" fill="#0C80F3"/>
<path d="M566.667 533.333C566.667 551.743 551.743 566.667 533.333 566.667C514.923 566.667 500 551.743 500 533.333C500 514.923 514.923 500 533.333 500C551.743 500 566.667 514.923 566.667 533.333Z" fill="#0C80F3"/>
<path d="M366.666 733.333H266.666C172.386 733.333 125.245 733.333 95.9558 704.043C66.6665 674.753 66.6665 627.613 66.6665 533.333C66.6665 439.053 66.6665 391.913 95.9558 362.623C125.245 333.333 172.386 333.333 266.666 333.333H533.333C627.613 333.333 674.753 333.333 704.043 362.623C733.333 391.913 733.333 439.053 733.333 533.333C733.333 627.613 733.333 674.753 704.043 704.043C674.753 733.333 627.613 733.333 533.333 733.333H500" stroke="#0C80F3" stroke-width="50" stroke-linecap="round"/>
<path d="M200 333.333V266.667C200 255.31 200.947 244.174 202.765 233.333M593.7 216.667C571.497 130.405 493.193 66.6667 400 66.6667C340.767 66.6667 287.548 92.4167 250.926 133.333" stroke="#0C80F3" stroke-width="50" stroke-linecap="round"/>
</svg>
