<svg width="800" height="800" viewBox="0 0 800 800" fill="none" xmlns="http://www.w3.org/2000/svg">
<path d="M200 266.667H333.333" stroke="#0C80F3" stroke-width="50" stroke-linecap="round" stroke-linejoin="round"/>
<path d="M733.333 350C733.333 347.42 733.333 332.242 733.257 331.153C732.077 314.461 717.76 301.165 699.783 300.071C698.61 300 697.223 300 694.443 300H607.693C548.217 300 500 344.77 500 400C500 455.23 548.217 500 607.693 500H694.443C697.223 500 698.61 500 699.783 499.93C717.76 498.833 732.077 485.54 733.257 468.847C733.333 467.757 733.333 452.58 733.333 450" stroke="#0C80F3" stroke-width="50" stroke-linecap="round"/>
<path d="M600 433.333C618.409 433.333 633.333 418.41 633.333 400C633.333 381.591 618.409 366.667 600 366.667C581.59 366.667 566.667 381.591 566.667 400C566.667 418.41 581.59 433.333 600 433.333Z" fill="#0C80F3"/>
<path d="M433.333 133.333C559.04 133.333 621.896 133.333 660.946 172.386C687.886 199.325 696.243 237.59 698.833 300M333.333 666.667H433.333C559.04 666.667 621.896 666.667 660.946 627.613C687.886 600.677 696.243 562.41 698.833 500M300 133.364C196.19 133.668 141.156 136.949 105.719 172.386C66.6665 211.438 66.6665 274.292 66.6665 400C66.6665 525.707 66.6665 588.563 105.719 627.613C127.492 649.387 156.663 659.02 200 663.283" stroke="#0C80F3" stroke-width="50" stroke-linecap="round"/>
</svg>
